<svg width="24" height="25" viewBox="0 0 24 25" fill="none" xmlns="http://www.w3.org/2000/svg">
<path d="M23 19.8043H20.337C19.904 18.3007 18.58 17.1956 17 17.1956C15.42 17.1956 14.097 18.3007 13.663 19.8043H0.999984C0.447984 19.8043 0 20.2718 0 20.8478C0 21.4238 0.447984 21.8913 0.999984 21.8913H13.663C14.096 23.3949 15.42 24.5 17 24.5C18.5799 24.5 19.903 23.3949 20.337 21.8913H23C23.553 21.8913 24 21.4238 24 20.8478C24 20.2718 23.553 19.8043 23 19.8043ZM17 22.413C16.173 22.413 15.5 21.7108 15.5 20.8478C15.5 19.9849 16.173 19.2826 17 19.2826C17.827 19.2826 18.5 19.9849 18.5 20.8478C18.5 21.7108 17.827 22.413 17 22.413Z" fill="#084892"/>
<path d="M23 3.10868H20.337C19.903 1.60504 18.58 0.5 17 0.5C15.42 0.5 14.097 1.60504 13.663 3.10868H0.999984C0.447984 3.10868 0 3.57614 0 4.15214C0 4.72814 0.447984 5.19561 0.999984 5.19561H13.663C14.097 6.69929 15.42 7.80434 17 7.80434C18.58 7.80434 19.903 6.69929 20.337 5.19566H23C23.553 5.19566 24 4.72819 24 4.15219C24 3.57619 23.553 3.10868 23 3.10868ZM17 5.71736C16.173 5.71736 15.5 5.01512 15.5 4.15214C15.5 3.28917 16.173 2.58693 17 2.58693C17.827 2.58693 18.5 3.28917 18.5 4.15214C18.5 5.01512 17.827 5.71736 17 5.71736Z" fill="#084892"/>
<path d="M23 11.4567H10.337C9.903 9.95303 8.58 8.84798 7.00003 8.84798C5.42006 8.84798 4.09702 9.95303 3.66305 11.4567H0.999984C0.447984 11.4567 0 11.9241 0 12.5001C0 13.0761 0.447984 13.5436 0.999984 13.5436H3.663C4.09702 15.0472 5.42001 16.1523 6.99998 16.1523C8.57995 16.1523 9.903 15.0472 10.337 13.5436H23C23.553 13.5436 24 13.0761 24 12.5001C24 11.9241 23.553 11.4567 23 11.4567ZM6.99998 14.0653C6.17297 14.0653 5.49998 13.3631 5.49998 12.5001C5.49998 11.6372 6.17297 10.9349 6.99998 10.9349C7.827 10.9349 8.49998 11.6372 8.49998 12.5001C8.49998 13.3631 7.827 14.0653 6.99998 14.0653Z" fill="#084892"/>
</svg>
