<svg width="24" height="25" viewBox="0 0 24 25" fill="none" xmlns="http://www.w3.org/2000/svg">
<path d="M20.25 12.1912L12.75 12.1912V4.69116C12.75 4.49225 12.671 4.30148 12.5303 4.16083C12.3897 4.02018 12.1989 3.94116 12 3.94116C11.8011 3.94116 11.6103 4.02018 11.4697 4.16083C11.329 4.30148 11.25 4.49225 11.25 4.69116V12.1912H3.75C3.55109 12.1912 3.36032 12.2702 3.21967 12.4108C3.07902 12.5515 3 12.7422 3 12.9412C3 13.1401 3.07902 13.3308 3.21967 13.4715C3.36032 13.6121 3.55109 13.6912 3.75 13.6912H11.25L11.25 21.1912C11.25 21.3901 11.329 21.5808 11.4697 21.7215C11.6103 21.8621 11.8011 21.9412 12 21.9412C12.1989 21.9412 12.3897 21.8621 12.5303 21.7215C12.671 21.5808 12.75 21.3901 12.75 21.1912L12.75 13.6912L20.25 13.6912C20.4489 13.6912 20.6397 13.6121 20.7803 13.4715C20.921 13.3308 21 13.1401 21 12.9412C21 12.7422 20.921 12.5515 20.7803 12.4108C20.6397 12.2702 20.4489 12.1912 20.25 12.1912Z" fill="#084892"/>
</svg>
